<svg width="1093" height="594" viewBox="0 0 1093 594" fill="none" xmlns="http://www.w3.org/2000/svg">
<path fill-rule="evenodd" clip-rule="evenodd" d="M1 594H367V155H1V594Z" fill="#B57AD2"/>
<path fill-rule="evenodd" clip-rule="evenodd" d="M364 594H728V155H364V594Z" fill="#3490CF"/>
<path fill-rule="evenodd" clip-rule="evenodd" d="M727 594H1091V155H727V594Z" fill="#B57AD2"/>
<path fill-rule="evenodd" clip-rule="evenodd" d="M1092.51 0H0.50943V242.648C0.50943 250.771 13.7903 257.356 30.1725 257.356H34.0644C50.4466 257.356 63.7275 263.941 63.7275 272.063C63.7275 277.318 69.3819 282.173 78.559 284.8L166.697 310.03C175.874 312.657 187.182 312.657 196.36 310.03L284.497 284.8C293.676 282.173 299.329 277.318 299.329 272.063C299.329 263.941 312.61 257.356 328.992 257.356H399.044C415.428 257.356 428.709 263.941 428.709 272.063C428.709 277.318 434.361 282.173 443.54 284.8L531.678 310.03C540.855 312.657 552.164 312.657 561.341 310.03L649.478 284.8C658.658 282.173 664.31 277.318 664.31 272.063C664.31 263.941 677.593 257.356 693.975 257.356H764.754C781.137 257.356 794.417 263.941 794.417 272.063C794.417 277.318 800.072 282.173 809.249 284.8L897.387 310.03C906.564 312.657 917.872 312.657 927.05 310.03L1015.19 284.8C1024.37 282.173 1030.02 277.318 1030.02 272.063C1030.02 263.941 1043.3 257.356 1059.68 257.356H1062.85C1079.23 257.356 1092.51 250.771 1092.51 242.648V0Z" fill="#F9F9F9"/>
<path fill-rule="evenodd" clip-rule="evenodd" d="M1092.51 0H0.50943V242.648C0.50943 250.771 13.7903 257.356 30.1725 257.356H34.0644C50.4466 257.356 63.7275 263.941 63.7275 272.063C63.7275 277.318 69.3819 282.173 78.559 284.8L166.697 310.03C175.874 312.657 187.182 312.657 196.36 310.03L284.497 284.8C293.676 282.173 299.329 277.318 299.329 272.063C299.329 263.941 312.61 257.356 328.992 257.356H399.044C415.428 257.356 428.709 263.941 428.709 272.063C428.709 277.318 434.361 282.173 443.54 284.8L531.678 310.03C540.855 312.657 552.164 312.657 561.341 310.03L649.478 284.8C658.658 282.173 664.31 277.318 664.31 272.063C664.31 263.941 677.593 257.356 693.975 257.356H764.754C781.137 257.356 794.417 263.941 794.417 272.063C794.417 277.318 800.072 282.173 809.249 284.8L897.387 310.03C906.564 312.657 917.872 312.657 927.05 310.03L1015.19 284.8C1024.37 282.173 1030.02 277.318 1030.02 272.063C1030.02 263.941 1043.3 257.356 1059.68 257.356H1062.85C1079.23 257.356 1092.51 250.771 1092.51 242.648V0Z" fill="url(#paint0_linear)"/>
<path fill-rule="evenodd" clip-rule="evenodd" d="M635.18 212.753V141.547C635.18 131.206 629.665 121.652 620.71 116.48L559.059 80.8778C550.105 75.7074 539.073 75.7074 530.121 80.8778L468.468 116.48C459.516 121.652 454 131.206 454 141.547V212.753C454 223.093 459.516 232.649 468.468 237.82L530.121 273.422C539.073 278.594 550.105 278.594 559.059 273.422L620.71 237.82C629.665 232.649 635.18 223.093 635.18 212.753Z" fill="#3490CF"/>
<path d="M551.915 139.797C550.743 139.797 549.794 138.847 549.794 137.676V124.257C549.794 122.051 547.999 120.256 545.792 120.256H516.992C514.786 120.256 512.991 122.051 512.991 124.257V137.676C512.991 138.847 512.041 139.797 510.87 139.797C509.698 139.797 508.749 138.847 508.749 137.676V124.257C508.749 119.711 512.447 116.013 516.992 116.013H545.792C550.338 116.013 554.036 119.711 554.036 124.257V137.676C554.036 138.847 553.087 139.797 551.915 139.797Z" fill="#2B4D66"/>
<path d="M581.311 203.699H489.543C485.086 203.699 481.473 200.087 481.473 195.63V148.385H581.311V203.699Z" fill="white"/>
<path d="M481.473 172.72C482.793 174.074 484.628 174.898 486.624 174.898H581.311V148.385H481.473V172.72Z" fill="#B57AD2"/>
<path d="M582.008 132.019H480.777C476.415 132.019 473.191 136.081 474.18 140.328L479.615 163.677C480.374 166.936 483.278 169.241 486.624 169.241H581.874L588.605 140.328C589.594 136.081 586.369 132.019 582.008 132.019V132.019Z" fill="white"/>
<path d="M582.008 132.019H574.795C579.157 132.019 582.382 136.081 581.393 140.328L574.661 169.242H581.874L588.605 140.328C589.594 136.081 586.369 132.019 582.008 132.019Z" fill="#B57AD2"/>
<circle cx="576.934" cy="201.349" r="37.6372" fill="#B57AD2"/>
<path d="M576.934 163.712C575.937 163.712 574.948 163.752 573.97 163.828C593.37 165.34 608.642 181.561 608.642 201.349C608.642 221.138 593.37 237.359 573.97 238.871C574.948 238.947 575.936 238.987 576.934 238.987C597.721 238.987 614.571 222.136 614.571 201.35C614.571 180.563 597.721 163.712 576.934 163.712V163.712Z" fill="#B57AD2"/>
<circle cx="576.934" cy="201.349" r="28.0734" fill="#F4FBFF"/>
<path d="M576.934 173.276C575.633 173.276 574.354 173.367 573.1 173.538C586.79 175.408 597.339 187.146 597.339 201.349C597.339 215.553 586.79 227.291 573.1 229.161C574.354 229.333 575.633 229.423 576.934 229.423C592.439 229.423 605.008 216.854 605.008 201.349C605.007 185.845 592.439 173.276 576.934 173.276V173.276Z" fill="#DAF1F4"/>
<path d="M576.934 184.037C575.762 184.037 574.813 183.087 574.813 181.916V180.944C574.813 179.773 575.763 178.823 576.934 178.823C578.106 178.823 579.055 179.773 579.055 180.944V181.916C579.055 183.087 578.106 184.037 576.934 184.037Z" fill="#365E7D"/>
<path d="M590.676 189.729C590.133 189.729 589.59 189.522 589.175 189.108C588.347 188.279 588.347 186.936 589.175 186.108L589.863 185.42C590.691 184.592 592.034 184.592 592.863 185.42C593.691 186.249 593.691 187.592 592.863 188.421L592.176 189.108C591.761 189.522 591.218 189.729 590.676 189.729Z" fill="#365E7D"/>
<path d="M597.339 203.471H596.368C595.196 203.471 594.246 202.521 594.246 201.349C594.246 200.178 595.196 199.228 596.368 199.228H597.339C598.511 199.228 599.461 200.178 599.461 201.349C599.461 202.521 598.511 203.471 597.339 203.471Z" fill="#365E7D"/>
<path d="M557.5 203.471H556.529C555.357 203.471 554.408 202.521 554.408 201.349C554.408 200.178 555.357 199.228 556.529 199.228H557.5C558.672 199.228 559.622 200.178 559.622 201.349C559.622 202.521 558.672 203.471 557.5 203.471Z" fill="#365E7D"/>
<path d="M591.363 217.899C590.82 217.899 590.277 217.692 589.863 217.278L589.176 216.591C588.347 215.763 588.347 214.42 589.175 213.591C590.004 212.762 591.347 212.762 592.175 213.591L592.862 214.278C593.691 215.106 593.691 216.449 592.863 217.278C592.449 217.692 591.906 217.899 591.363 217.899Z" fill="#365E7D"/>
<path d="M576.934 223.876C575.762 223.876 574.813 222.926 574.813 221.755V220.783C574.813 219.612 575.763 218.662 576.934 218.662C578.106 218.662 579.055 219.612 579.055 220.783V221.755C579.055 222.926 578.106 223.876 576.934 223.876Z" fill="#365E7D"/>
<path d="M562.506 217.899C561.963 217.899 561.42 217.692 561.005 217.278C560.177 216.449 560.177 215.107 561.005 214.278L561.692 213.591C562.521 212.763 563.864 212.763 564.693 213.591C565.521 214.419 565.521 215.762 564.693 216.591L564.006 217.278C563.591 217.692 563.048 217.899 562.506 217.899Z" fill="#365E7D"/>
<path d="M563.193 189.729C562.649 189.729 562.106 189.522 561.692 189.107L561.005 188.42C560.177 187.592 560.177 186.249 561.006 185.42C561.834 184.592 563.177 184.592 564.006 185.421L564.693 186.108C565.521 186.936 565.521 188.279 564.692 189.108C564.278 189.522 563.735 189.729 563.193 189.729Z" fill="#365E7D"/>
<path d="M582.716 203.471H576.934C575.762 203.471 574.813 202.521 574.813 201.35V190.154C574.813 188.982 575.763 188.032 576.934 188.032C578.106 188.032 579.055 188.982 579.055 190.154V199.228H582.716C583.888 199.228 584.837 200.178 584.837 201.349C584.837 202.521 583.888 203.471 582.716 203.471Z" fill="#2B4D66"/>
<path d="M537.26 176.945H525.525C523.788 176.945 522.379 175.536 522.379 173.799V164.66C522.379 162.923 523.787 161.514 525.525 161.514H537.26C538.997 161.514 540.406 162.922 540.406 164.66V173.799C540.406 175.536 538.997 176.945 537.26 176.945Z" fill="#B57AD2"/>
<path d="M537.26 161.514H531.866C533.603 161.514 535.012 162.922 535.012 164.66V173.799C535.012 175.536 533.604 176.945 531.866 176.945H537.26C538.997 176.945 540.406 175.536 540.406 173.799V164.66C540.406 162.923 538.997 161.514 537.26 161.514Z" fill="#D1B4E0"/>
<path fill-rule="evenodd" clip-rule="evenodd" d="M1000.18 212.753V141.547C1000.18 131.206 994.665 121.652 985.71 116.48L924.059 80.8778C915.107 75.7074 904.073 75.7074 895.121 80.8778L833.47 116.48C824.518 121.652 819 131.206 819 141.547V212.753C819 223.093 824.518 232.649 833.47 237.82L895.121 273.422C904.073 278.594 915.107 278.594 924.059 273.422L985.71 237.82C994.665 232.649 1000.18 223.093 1000.18 212.753Z" fill="#B57AD2"/>
<path d="M903.809 211.667C910.799 211.667 916.695 207.079 918.706 200.753C920.151 201.495 921.674 202.022 923.255 202.276V202.295L931.143 227.286L917.476 225.333L907.714 235.095L903.809 222.405L900.393 211.296V211.276C901.486 211.53 902.638 211.667 903.809 211.667Z" fill="white"/>
<path d="M890.143 225.333L876.476 227.286L884.364 202.295V202.276C885.945 202.022 887.468 201.495 888.913 200.753C890.592 206.024 894.946 210.085 900.393 211.276V211.296L903.81 222.405L899.905 235.095L890.143 225.333Z" fill="white"/>
<path d="M931.924 178.476C928.937 173.693 927.238 168.07 927.238 162.135V149.19H930.87H931.807C934.872 149.19 937.879 148.663 940.71 147.668C942.525 142.22 941.276 135.992 936.941 131.678C932.002 126.738 924.583 125.801 918.706 128.866C916.695 122.54 910.799 117.952 903.81 117.952C896.82 117.952 890.924 122.54 888.913 128.866C883.036 125.801 875.617 126.738 870.678 131.678C865.738 136.617 864.801 144.036 867.866 149.913C861.54 151.924 856.952 157.82 856.952 164.81C856.952 171.799 861.54 177.695 867.866 179.706C864.801 185.583 865.738 193.002 870.678 197.941C874.407 201.67 879.541 203.115 884.364 202.276C885.945 202.022 887.468 201.495 888.913 200.753C890.592 206.024 894.946 210.085 900.393 211.276C901.486 211.53 902.638 211.667 903.81 211.667C910.799 211.667 916.695 207.079 918.706 200.753C920.151 201.495 921.674 202.022 923.255 202.276C928.078 203.115 933.212 201.67 936.941 197.941C939.675 195.208 941.178 191.733 941.471 188.18C937.586 185.68 934.325 182.361 931.924 178.476Z" fill="white"/>
<path d="M899.573 169.71L897.952 174.572L892.661 175.333C892.622 175.333 892.603 175.333 892.564 175.352C887.8 176.075 884.286 180.175 884.286 184.997V189.195C877.14 183.474 872.571 174.689 872.571 164.81C872.571 147.551 886.55 133.572 903.81 133.572C915.368 133.572 925.461 139.858 930.87 149.191H927.238V162.135C927.238 168.07 928.937 173.693 931.924 178.476H931.904C929.874 182.654 926.926 186.325 923.333 189.175V184.997C923.333 180.175 919.819 176.075 915.055 175.352C915.016 175.333 914.997 175.333 914.958 175.333L909.667 174.572L908.046 169.71C910.76 168.382 912.771 165.883 913.376 162.857L915.329 160.065C916.734 158.074 917.476 155.692 917.476 153.252C917.476 149.972 916.149 147.004 914.001 144.856C911.853 142.709 908.886 141.381 905.606 141.381H902.013C895.453 141.381 890.143 146.692 890.143 153.252C890.143 155.692 890.885 158.074 892.29 160.065L894.243 162.857C894.633 164.771 895.57 166.489 896.898 167.816L899.573 169.71Z" fill="white"/>
<path d="M915.329 160.065L913.376 162.857C913.513 162.232 913.571 161.568 913.571 160.905V158.347C913.571 156.453 912.185 154.813 910.311 154.501L906.504 153.876C904.883 153.603 903.439 152.841 902.326 151.728L902.306 151.748L897.738 153.583C895.512 154.462 894.048 156.609 894.048 159.011V160.905C894.048 161.568 894.106 162.232 894.243 162.857L892.29 160.065C890.885 158.074 890.143 155.692 890.143 153.251C890.143 146.691 895.453 141.381 902.013 141.381H905.606C908.886 141.381 911.853 142.708 914.001 144.856C916.149 147.004 917.476 149.971 917.476 153.251C917.476 155.692 916.734 158.074 915.329 160.065Z" fill="white"/>
<path d="M923.333 184.997V189.175C917.984 193.49 911.209 196.048 903.81 196.048C896.43 196.048 889.635 193.49 884.286 189.195V184.997C884.286 180.175 887.8 176.075 892.564 175.352L897.952 184.333L903.81 178.476L909.667 184.333L915.055 175.352C919.819 176.075 923.333 180.175 923.333 184.997Z" fill="white"/>
<path d="M897.952 174.572L903.81 178.476L897.952 184.333L892.564 175.352C892.603 175.333 892.622 175.333 892.661 175.333L897.952 174.572Z" fill="white"/>
<path d="M915.055 175.352L909.667 184.333L903.81 178.476L909.667 174.572L914.958 175.333C914.997 175.333 915.016 175.333 915.055 175.352Z" fill="white"/>
<path d="M903.81 170.667C905.332 170.667 906.777 170.315 908.046 169.71L909.667 174.571L903.81 178.476L897.952 174.571L899.573 169.71L903.81 170.667Z" fill="white"/>
<path d="M913.376 162.857C912.771 165.883 910.76 168.382 908.046 169.71C906.777 170.315 905.332 170.667 903.81 170.667L899.573 169.71L896.898 167.816C895.57 166.489 894.633 164.77 894.243 162.857C894.106 162.232 894.048 161.569 894.048 160.905V159.011C894.048 156.609 895.512 154.462 897.738 153.583L902.306 151.748L902.326 151.729C903.439 152.841 904.883 153.603 906.504 153.876L910.311 154.501C912.185 154.813 913.571 156.453 913.571 158.347V160.905C913.571 161.569 913.513 162.232 913.376 162.857Z" fill="white"/>
<path d="M974.095 149.19V162.135C974.095 169.222 971.674 175.879 967.535 181.17C963.396 186.481 957.539 190.425 950.667 192.143C947.328 191.303 944.243 189.956 941.471 188.179C937.586 185.68 934.325 182.361 931.924 178.476C928.937 173.693 927.238 168.07 927.238 162.135V149.19H930.87H931.807C934.872 149.19 937.879 148.663 940.71 147.668C944.419 146.34 947.836 144.212 950.667 141.381C955.665 146.379 962.44 149.19 969.527 149.19H974.095Z" fill="white"/>
<path fill-rule="evenodd" clip-rule="evenodd" d="M952.047 140.001C956.715 144.669 962.92 147.238 969.521 147.238H976.048V162.137C976.048 177.254 965.805 190.372 951.141 194.035L950.667 194.154L950.194 194.035C947.617 193.392 945.188 192.442 942.916 191.255C942.139 194.289 940.563 197.084 938.324 199.324C934.95 202.697 930.499 204.425 925.977 204.441L933.941 229.658L918.167 227.405L906.803 238.77L903.81 229.043L900.818 238.77L889.454 227.405L873.68 229.658L881.642 204.443C877.12 204.427 872.669 202.697 869.295 199.324C864.369 194.398 862.858 187.174 865.244 180.784C859.038 177.953 855 171.778 855 164.81C855 157.841 859.038 151.666 865.244 148.835C862.858 142.445 864.369 135.221 869.295 130.295C874.225 125.368 881.447 123.856 887.835 126.244C890.666 120.038 896.841 116 903.81 116C910.778 116 916.953 120.038 919.784 126.244C926.174 123.858 933.398 125.369 938.324 130.295C942.102 134.073 943.861 139.226 943.357 144.384C945.512 143.242 947.512 141.775 949.286 140.001L950.667 138.62L952.047 140.001ZM892.376 224.806L898.993 231.421L901.767 222.405L898.845 212.906C894.005 211.493 889.969 208.053 887.835 203.375C887.197 203.613 886.547 203.783 885.894 203.945L879.272 224.914L888.673 223.57L892.197 213L895.9 214.236L892.376 224.806ZM928.347 224.914L918.946 223.57L915.422 213L911.719 214.236L915.243 224.806L908.626 231.421L903.132 213.57C903.234 213.574 903.335 213.584 903.436 213.594L903.436 213.594C903.56 213.607 903.684 213.619 903.81 213.619C910.778 213.619 916.953 209.582 919.784 203.375C920.422 203.613 921.072 203.783 921.725 203.945L928.347 224.914ZM919.602 199.029C924.915 201.792 931.328 200.796 935.563 196.563C937.597 194.527 938.88 191.893 939.337 189.074C936.569 187.141 934.122 184.818 932.088 182.168C926.076 192.002 915.52 198 903.81 198C885.508 198 870.619 183.111 870.619 164.81C870.619 146.508 885.508 131.619 903.81 131.619C915.235 131.619 925.901 137.58 931.947 147.23C934.405 147.219 936.809 146.85 939.095 146.149C940.315 141.459 939.023 136.518 935.563 133.056C931.328 128.821 924.915 127.831 919.602 130.59L917.541 131.662L916.84 129.446C915.036 123.739 909.797 119.905 903.81 119.905C897.822 119.905 892.583 123.739 890.779 129.446L890.078 131.662L888.017 130.59C882.708 127.835 876.291 128.823 872.056 133.056C867.823 137.291 866.831 143.704 869.59 149.017L870.662 151.078L868.446 151.779C862.739 153.583 858.905 158.822 858.905 164.81C858.905 170.799 862.739 176.036 868.446 177.836L870.662 178.537L869.59 180.598C866.831 185.911 867.821 192.326 872.056 196.561C876.291 200.794 882.704 201.792 888.017 199.027L890.078 197.957L890.779 200.171C892.583 205.88 897.822 209.714 903.81 209.714C909.797 209.714 915.036 205.88 916.84 200.173L917.541 197.959L919.602 199.029ZM929.671 178.527C928.452 180.825 926.973 182.918 925.264 184.765C925.151 179.072 920.885 174.202 915.227 173.394L911.137 172.81L910.395 170.585C912.748 168.98 914.475 166.535 915.174 163.693L916.93 161.188C918.564 158.851 919.429 156.11 919.429 153.257C919.429 145.631 913.226 139.429 905.6 139.429H902.017C894.393 139.429 888.19 145.631 888.19 153.257C888.19 156.11 889.055 158.851 890.691 161.188L892.445 163.693C893.144 166.537 894.872 168.98 897.224 170.585L896.482 172.81L892.392 173.394C886.761 174.199 882.515 179.027 882.363 184.685C877.515 179.456 874.524 172.484 874.524 164.81C874.524 148.661 887.661 135.524 903.81 135.524C913.05 135.524 921.732 139.942 927.226 147.238H925.286V162.137C925.286 168.06 926.877 173.666 929.671 178.527ZM899.227 150.873C898.946 150.362 898.708 149.821 898.519 149.253L898.054 147.857L901.758 146.623L902.222 148.019C902.911 150.081 904.671 151.586 906.816 151.943L910.629 152.58C912.699 152.923 914.343 154.315 915.086 156.157C915.372 155.225 915.524 154.251 915.524 153.257C915.524 147.785 911.072 143.333 905.602 143.333H902.019C896.547 143.333 892.095 147.785 892.095 153.257C892.095 154.312 892.267 155.342 892.587 156.326C893.333 154.286 894.897 152.607 897.005 151.764L899.227 150.873ZM896 159.013C896 157.406 896.964 155.983 898.454 155.387L901.939 153.993C903.163 154.905 904.606 155.534 906.172 155.793L909.985 156.43C910.932 156.588 911.619 157.398 911.619 158.355V160.901C911.619 165.208 908.116 168.712 903.81 168.714C899.503 168.712 896 165.208 896 160.901V159.013ZM911.875 176.86L910.129 176.61L906.875 178.781L909.28 181.186L911.875 176.86ZM903.81 176.129L900.276 173.773L900.797 172.209C901.76 172.469 902.765 172.619 903.806 172.619H903.813C904.854 172.619 905.86 172.469 906.822 172.211L907.343 173.775L903.81 176.129ZM898.339 181.186L900.744 178.781L897.49 176.61L895.744 176.86L898.339 181.186ZM897.564 187.483L903.81 181.237L910.055 187.483L915.998 177.574C919.144 178.611 921.381 181.59 921.381 184.991V188.267C916.424 191.989 910.321 194.095 903.81 194.095C897.212 194.095 891.139 191.877 886.238 188.183V184.991C886.238 181.59 888.476 178.611 891.621 177.574L897.564 187.483ZM950.667 190.126C963.336 186.737 972.143 175.296 972.143 162.137V151.143H969.521C962.51 151.143 955.885 148.64 950.667 144.056C945.446 148.64 938.822 151.143 931.813 151.143H929.19V162.137C929.19 175.296 937.998 186.737 950.667 190.126Z" fill="#3490CF"/>
<path d="M946.762 173.763L940.333 167.334L937.572 170.095L946.762 179.284L967.666 158.38L964.905 155.62L946.762 173.763Z" fill="#3490CF"/>
<path fill-rule="evenodd" clip-rule="evenodd" d="M270.18 211.753V140.547C270.18 130.206 264.665 120.652 255.71 115.48L194.059 79.8778C185.105 74.7074 174.073 74.7074 165.121 79.8778L103.47 115.48C94.5157 120.652 89 130.206 89 140.547V211.753C89 222.093 94.5157 231.649 103.47 236.82L165.121 272.422C174.073 277.594 185.105 277.594 194.059 272.422L255.71 236.82C264.665 231.649 270.18 222.093 270.18 211.753Z" fill="#B57AD2"/>
<path fill-rule="evenodd" clip-rule="evenodd" d="M166.127 131.109L169.853 132.863L171.594 129.274L167.888 127.438L166.127 131.109ZM177.245 136.37L173.539 134.616L175.198 130.946L178.904 132.699L177.245 136.37ZM180.911 138.123L184.617 139.877L186.378 136.207L182.672 134.453L180.911 138.123ZM192.009 143.384L188.303 141.631L190.064 137.96L193.77 139.714L192.009 143.384ZM195.674 145.138L199.401 146.892L201.121 143.221L197.435 141.468L195.674 145.138ZM203.107 148.645L206.793 150.399L208.554 146.729L204.868 144.975L203.107 148.645Z" fill="#5A5A60"/>
<path fill-rule="evenodd" clip-rule="evenodd" d="M201.817 201.642L203.865 205.211L207.448 203.171L205.401 199.603L201.817 201.642ZM196.698 209.146L194.65 205.557L198.234 203.518L200.282 207.087L196.698 209.146ZM187.484 209.493L189.531 213.061L193.135 211.022L191.088 207.454L187.484 209.493ZM182.344 216.956L180.296 213.387L183.88 211.348L185.927 214.937L182.344 216.956ZM173.15 217.364L175.198 221.034L178.802 218.893L176.754 215.325L173.15 217.364ZM165.942 221.279L167.99 224.868L171.573 222.808L169.526 219.24L165.942 221.279Z" fill="#5A5A60"/>
<path d="M179.317 181.844L181.078 178.162L184.775 179.915L183.015 183.597L179.317 181.844Z" fill="#5A5A60"/>
<path d="M149.742 167.813L151.502 164.131L155.2 165.884L153.439 169.566L149.742 167.813Z" fill="#5A5A60"/>
<path d="M157.143 171.32L158.904 167.638L162.602 169.391L160.841 173.073L157.143 171.32Z" fill="#5A5A60"/>
<path d="M186.719 185.351L188.48 181.669L192.177 183.422L190.417 187.104L186.719 185.351Z" fill="#5A5A60"/>
<path d="M186.995 166.158L190.583 164.192L192.557 167.765L188.969 169.731L186.995 166.158Z" fill="#5A5A60"/>
<path d="M151.114 185.798L154.702 183.832L156.676 187.405L153.088 189.371L151.114 185.798Z" fill="#5A5A60"/>
<path d="M168.338 176.377L169.997 172.911L166.29 171.157L164.529 174.828L168.092 176.52L165.471 177.947L167.437 181.516L171.041 179.558L169.055 175.99L168.338 176.377Z" fill="#5A5A60"/>
<path d="M179.836 170.09L183.424 168.124L185.398 171.697L181.81 173.663L179.836 170.09Z" fill="#5A5A60"/>
<path d="M158.279 181.892L161.868 179.927L163.841 183.501L160.252 185.466L158.279 181.892Z" fill="#5A5A60"/>
<path d="M176.242 172.054L172.659 174.012L173.375 175.317L171.921 178.335L175.628 180.089L177.389 176.418L177.061 176.255L178.208 175.623L176.242 172.054Z" fill="#5A5A60"/>
<path fill-rule="evenodd" clip-rule="evenodd" d="M166.565 135.065L166.749 136.574C166.993 138.497 166.993 140.442 166.749 142.365L166.565 143.874L159.918 145.097C159.619 146.04 159.237 146.954 158.777 147.83L162.569 153.437L161.651 154.62C160.457 156.135 159.088 157.504 157.574 158.698L156.391 159.616L150.825 155.782C149.95 156.243 149.036 156.625 148.093 156.924L146.87 163.572L145.361 163.755C143.439 164 141.493 164 139.571 163.755L138.062 163.572L136.839 156.924C135.896 156.625 134.982 156.243 134.107 155.782L128.5 159.575L127.317 158.658C125.803 157.463 124.434 156.094 123.24 154.579L122.322 153.397L126.155 147.83C125.695 146.954 125.313 146.04 125.014 145.097L118.367 143.874L118.183 142.365C117.939 140.442 117.939 138.497 118.183 136.574L118.367 135.065L125.014 133.841C125.313 132.899 125.695 131.985 126.155 131.109L122.363 125.501L123.281 124.319C124.475 122.804 125.844 121.435 127.358 120.241L128.541 119.323L134.107 123.156C134.982 122.696 135.896 122.314 136.839 122.015L138.062 115.367L139.571 115.184C141.493 114.939 143.439 114.939 145.361 115.184L146.87 115.367L148.093 122.015C149.036 122.314 149.95 122.696 150.825 123.156L156.432 119.364L157.615 120.281C159.129 121.476 160.498 122.845 161.692 124.36L162.61 125.542L158.777 131.109C159.237 131.985 159.619 132.899 159.918 133.841L166.565 135.065ZM142.466 145.587C145.844 145.587 148.583 142.848 148.583 139.469C148.583 136.091 145.844 133.352 142.466 133.352C139.088 133.352 136.35 136.091 136.35 139.469C136.35 142.848 139.088 145.587 142.466 145.587Z" fill="white"/>
<path fill-rule="evenodd" clip-rule="evenodd" d="M239.963 171.769L240.147 173.278C240.391 175.201 240.391 177.146 240.147 179.069L239.963 180.578L233.317 181.802C233.017 182.744 232.635 183.658 232.175 184.534L235.967 190.142L235.05 191.324C233.855 192.839 232.486 194.208 230.972 195.402L229.789 196.32L224.223 192.486C223.348 192.947 222.434 193.329 221.491 193.628L220.268 200.276L218.759 200.459C216.837 200.704 214.891 200.704 212.969 200.459L211.46 200.276L210.237 193.628C209.294 193.329 208.38 192.947 207.505 192.486L201.898 196.279L200.716 195.362C199.201 194.167 197.832 192.798 196.638 191.283L195.72 190.101L199.553 184.534C199.093 183.658 198.711 182.744 198.412 181.802L191.765 180.578L191.582 179.069C191.337 177.146 191.337 175.201 191.582 173.278L191.765 171.769L198.412 170.546C198.711 169.603 199.093 168.689 199.553 167.813L195.761 162.206L196.679 161.023C197.873 159.508 199.242 158.139 200.756 156.945L201.939 156.027L207.505 159.861C208.38 159.4 209.294 159.018 210.237 158.719L211.46 152.071L212.969 151.888C214.891 151.643 216.837 151.643 218.759 151.888L220.268 152.071L221.491 158.719C222.434 159.018 223.348 159.4 224.223 159.861L229.83 156.068L231.013 156.985C232.527 158.18 233.896 159.549 235.09 161.064L236.008 162.246L232.175 167.813C232.635 168.689 233.017 169.603 233.317 170.546L239.963 171.769ZM215.864 182.291C219.242 182.291 221.981 179.552 221.981 176.174C221.981 172.795 219.242 170.056 215.864 170.056C212.486 170.056 209.748 172.795 209.748 176.174C209.748 179.552 212.486 182.291 215.864 182.291Z" fill="white"/>
<path fill-rule="evenodd" clip-rule="evenodd" d="M166.565 208.473L166.749 209.982C166.993 211.905 166.993 213.851 166.749 215.773L166.565 217.282L159.918 218.506C159.619 219.448 159.237 220.362 158.777 221.238L162.569 226.846L161.651 228.028C160.457 229.543 159.088 230.912 157.574 232.107L156.391 233.024L150.825 229.191C149.95 229.651 149.036 230.033 148.093 230.333L146.87 236.98L145.361 237.164C143.439 237.408 141.493 237.408 139.571 237.164L138.062 236.98L136.839 230.333C135.896 230.033 134.982 229.651 134.107 229.191L128.5 232.983L127.317 232.066C125.803 230.871 124.434 229.502 123.24 227.988L122.322 226.805L126.155 221.238C125.695 220.362 125.313 219.448 125.014 218.506L118.367 217.282L118.183 215.773C117.939 213.851 117.939 211.905 118.183 209.982L118.367 208.473L125.014 207.25C125.313 206.307 125.695 205.393 126.155 204.517L122.363 198.91L123.281 197.727C124.475 196.212 125.844 194.843 127.358 193.649L128.541 192.731L134.107 196.565C134.982 196.104 135.896 195.722 136.839 195.423L138.062 188.775L139.571 188.592C141.493 188.347 143.439 188.347 145.361 188.592L146.87 188.775L148.093 195.423C149.036 195.722 149.95 196.104 150.825 196.565L156.432 192.772L157.615 193.69C159.129 194.884 160.498 196.253 161.692 197.768L162.61 198.95L158.777 204.517C159.237 205.393 159.619 206.307 159.918 207.25L166.565 208.473ZM142.466 218.995C145.844 218.995 148.583 216.256 148.583 212.878C148.583 209.499 145.844 206.76 142.466 206.76C139.088 206.76 136.35 209.499 136.35 212.878C136.35 216.256 139.088 218.995 142.466 218.995Z" fill="white"/>
<defs>
<linearGradient id="paint0_linear" x1="-208.782" y1="0" x2="-208.782" y2="427.389" gradientUnits="userSpaceOnUse">
<stop stop-color="#B57AD2" stop-opacity="0.776388"/>
<stop offset="1" stop-color="#FFF4E5" stop-opacity="0.01"/>
</linearGradient>
</defs>
</svg>
